<svg xmlns="http://www.w3.org/2000/svg" width="150" height="170" viewBox="0 0 150 170">

<defs>
  <filter id="shadow" x="-20%" y="-20%" width="140%" height="140%">
    <feDropShadow dx="0" dy="8" stdDeviation="10" flood-color="#1c3d35" flood-opacity="0.12"/>
  </filter>
  <linearGradient id="cream" x1="0" y1="0" x2="1" y2="1">
    <stop offset="0%" stop-color="#FFFDF7"/>
    <stop offset="100%" stop-color="#FFF4D7"/>
  </linearGradient>
  <linearGradient id="mint" x1="0" y1="0" x2="1" y2="1">
    <stop offset="0%" stop-color="#F4FBF7"/>
    <stop offset="100%" stop-color="#E2F0EA"/>
  </linearGradient>
</defs>

<polygon points="50,104 32,160 70,140 82,166 92,104" fill="#16B873" opacity="0.85"/>
<polygon points="100,104 118,160 80,140 68,166 58,104" fill="#4BDB96" opacity="0.78"/>
<path d="M75 10l10 8 13-3 7 12 13 2 3 13 12 7-3 13 8 10-8 10 3 13-12 7-3 13-13 2-7 12-13-3-10 8-10-8-13 3-7-12-13-2-3-13-12-7 3-13-8-10 8-10-3-13 12-7 3-13 13-2 7-12 13 3z" fill="url(#gmedalcheck.svg)" filter="url(#shadow)"/>
<defs><linearGradient id="gmedalcheck.svg" x1="0" y1="0" x2="1" y2="1"><stop offset="0" stop-color="#4BDB96"/><stop offset="1" stop-color="#16B873"/></linearGradient></defs>
<circle cx="75" cy="72" r="43" fill="#FFF8E8" stroke="#FFFFFF" stroke-width="5"/>

<rect x="52" y="49" width="48" height="48" rx="10" fill="#25C889"/>
<path d="M63 74l10 10 18-23" stroke="#FFFFFF" stroke-width="7" fill="none" stroke-linecap="round" stroke-linejoin="round"/>

</svg>
